<svg width="32" height="32" fill="none" xmlns="http://www.w3.org/2000/svg"><defs><clipPath id="clip41317_307"><path id="Icon-Close" fill="#fff" fill-opacity="0" d="M0 0h32v32H0z"/></clipPath></defs><path id="Icon-Close" fill="#FFF" fill-opacity="0" d="M0 0h32v32H0z"/><g clip-path="url('#clip41317_307')"><path id="Vector" d="M25.59 8.55c.59-.59.59-1.55 0-2.15-.6-.59-1.56-.59-2.15 0L16 13.85 8.55 6.4c-.59-.59-1.55-.59-2.15 0-.59.6-.59 1.56 0 2.15L13.85 16 6.4 23.44c-.59.59-.59 1.55 0 2.15.6.59 1.56.59 2.15 0L16 18.14l7.44 7.45c.59.59 1.55.59 2.15 0 .59-.6.59-1.56 0-2.15L18.14 16l7.45-7.45Z" fill="#1B2129" fill-opacity="1" fill-rule="nonzero"/></g></svg>