<svg width="130" height="38" fill="none" xmlns="http://www.w3.org/2000/svg"><path id="Logo" fill="#FFF" fill-opacity="0" d="M0 0h130v38H0z"/><path id="MyBiKE" d="M79.56 5.66c.71.62 1.63.93 2.74.93 1.08 0 1.97-.31 2.66-.93.72-.64 1.07-1.42 1.07-2.35 0-.95-.35-1.73-1.07-2.35C84.27.32 83.38 0 82.3 0c-1.11 0-2.03.32-2.74.96-.69.62-1.04 1.4-1.04 2.35 0 .93.35 1.71 1.04 2.35ZM29.41 3.52v25.03h-6.33V13.54l-5.81 15.01h-5.1L6.32 13.51v15.04H0V3.52h7.47l7.29 17.33 7.21-17.33h7.44Zm41.91 12.2c1.5.3 2.71 1.03 3.62 2.17.92 1.12 1.37 2.4 1.37 3.85q0 1.83-.78 3.22-.55 1-1.51 1.77c-1.51 1.21-3.61 1.82-6.33 1.82H55.6V3.52h11.69c2.64 0 4.7.59 6.17 1.75 1.51 1.17 2.26 2.75 2.26 4.74 0 1.48-.41 2.7-1.22 3.67-.79.98-1.85 1.66-3.18 2.04Zm32.9 12.83L95.49 17.5v11.05h-6.33V3.52h6.33V14.5l8.65-10.98h7.44l-10.06 12.27 10.43 12.76h-7.73Zm16.19-15.08V8.41H130V3.52h-15.91v25.03H130v-4.89h-9.59v-5.48h8.48v-4.71h-8.48Zm-58.49.18h4.15c1.03 0 1.82-.22 2.36-.64.57-.46.85-1.11.85-1.96 0-.86-.28-1.51-.85-1.96-.54-.46-1.33-.68-2.36-.68h-4.15v5.24ZM41.23 38 54.18 8.66h-6.85L42.6 21.1 37.82 8.66h-7.06l8.4 19.21L34.42 38h6.81Zm44.21-9.45V8.66h-6.32v19.89h6.32Zm-18.86-4.92c1.06 0 1.88-.23 2.45-.68.59-.47.88-1.15.88-2.03 0-.88-.31-1.57-.92-2.07-.59-.5-1.42-.75-2.48-.75h-4.59v5.53h4.66Z" fill="#FFF" fill-opacity="1" fill-rule="evenodd"/></svg>