<svg width="32" height="32" fill="none" xmlns="http://www.w3.org/2000/svg"><defs><clipPath id="clip41317_170"><path id="Icon-Phone-call" fill="#fff" fill-opacity="0" d="M0 0h32v32H0z"/></clipPath></defs><path id="Icon-Phone-call" fill="#FFF" fill-opacity="0" d="M0 0h32v32H0z"/><g clip-path="url('#clip41317_170')"><path id="Vector" d="M26.68 20.5c-1.64 0-3.23-.26-4.71-.74-.47-.16-.99-.05-1.35.32l-2.09 2.62c-3.78-1.8-7.31-5.2-9.19-9.1l2.6-2.22c.36-.37.47-.89.32-1.36-.49-1.48-.74-3.07-.74-4.71 0-.72-.61-1.31-1.32-1.31H5.58C4.86 4 4 4.31 4 5.31 4 17.7 14.3 28 26.68 28c.94 0 1.32-.84 1.32-1.58v-4.6c0-.72-.61-1.32-1.32-1.32Z" fill="#FFF" fill-opacity="1" fill-rule="nonzero"/></g></svg>